<svg width="16" height="16" viewBox="0 0 16 16" fill="none" xmlns="http://www.w3.org/2000/svg">
<path fill-rule="evenodd" clip-rule="evenodd" d="M4.00001 7C3.8232 7 3.65363 7.07024 3.52861 7.19526C3.40358 7.32029 3.33334 7.48986 3.33334 7.66667V8.33333C3.33334 8.51014 3.40358 8.67971 3.52861 8.80474C3.65363 8.92976 3.8232 9 4.00001 9H4.66668C4.84349 9 5.01306 8.92976 5.13808 8.80474C5.26311 8.67971 5.33334 8.51014 5.33334 8.33333V7.66667C5.33334 7.48986 5.26311 7.32029 5.13808 7.19526C5.01306 7.07024 4.84349 7 4.66668 7H4.00001ZM4.00001 7.66667V8.33333H4.66668V7.66667H4.00001ZM6.00001 7.66667C6.00001 7.48986 6.07025 7.32029 6.19527 7.19526C6.3203 7.07024 6.48987 7 6.66668 7H7.33334C7.51015 7 7.67972 7.07024 7.80475 7.19526C7.92977 7.32029 8.00001 7.48986 8.00001 7.66667V8.33333C8.00001 8.51014 7.92977 8.67971 7.80475 8.80474C7.67972 8.92976 7.51015 9 7.33334 9H6.66668C6.48987 9 6.3203 8.92976 6.19527 8.80474C6.07025 8.67971 6.00001 8.51014 6.00001 8.33333V7.66667ZM6.66668 7.66667H7.33334V8.33333H6.66668V7.66667ZM9.33334 7C9.15653 7 8.98696 7.07024 8.86194 7.19526C8.73692 7.32029 8.66668 7.48986 8.66668 7.66667V8.33333C8.66668 8.51014 8.73692 8.67971 8.86194 8.80474C8.98696 8.92976 9.15653 9 9.33334 9H10C10.1768 9 10.3464 8.92976 10.4714 8.80474C10.5964 8.67971 10.6667 8.51014 10.6667 8.33333V7.66667C10.6667 7.48986 10.5964 7.32029 10.4714 7.19526C10.3464 7.07024 10.1768 7 10 7H9.33334ZM9.33334 7.66667V8.33333H10V7.66667H9.33334ZM3.33334 10.3333C3.33334 10.1565 3.40358 9.98695 3.52861 9.86193C3.65363 9.7369 3.8232 9.66667 4.00001 9.66667H4.66668C4.84349 9.66667 5.01306 9.7369 5.13808 9.86193C5.26311 9.98695 5.33334 10.1565 5.33334 10.3333V11C5.33334 11.1768 5.26311 11.3464 5.13808 11.4714C5.01306 11.5964 4.84349 11.6667 4.66668 11.6667H4.00001C3.8232 11.6667 3.65363 11.5964 3.52861 11.4714C3.40358 11.3464 3.33334 11.1768 3.33334 11V10.3333ZM4.66668 10.3333V11H4.00001V10.3333H4.66668ZM6.66668 9.66667C6.48987 9.66667 6.3203 9.7369 6.19527 9.86193C6.07025 9.98695 6.00001 10.1565 6.00001 10.3333V11C6.00001 11.1768 6.07025 11.3464 6.19527 11.4714C6.3203 11.5964 6.48987 11.6667 6.66668 11.6667H7.33334C7.51015 11.6667 7.67972 11.5964 7.80475 11.4714C7.92977 11.3464 8.00001 11.1768 8.00001 11V10.3333C8.00001 10.1565 7.92977 9.98695 7.80475 9.86193C7.67972 9.7369 7.51015 9.66667 7.33334 9.66667H6.66668ZM7.33334 10.3333H6.66668V11H7.33334V10.3333Z" fill="white"/>
<path d="M12 10.8333C12 10.7449 11.9649 10.6601 11.9024 10.5976C11.8399 10.5351 11.7551 10.5 11.6667 10.5C11.5783 10.5 11.4935 10.5351 11.431 10.5976C11.3685 10.6601 11.3333 10.7449 11.3333 10.8333V11.8047L11.7643 12.2357C11.8272 12.2964 11.9114 12.33 11.9988 12.3292C12.0862 12.3285 12.1698 12.2934 12.2316 12.2316C12.2934 12.1698 12.3285 12.0862 12.3292 11.9988C12.33 11.9114 12.2964 11.8272 12.2357 11.7643L12 11.5287V10.8333Z" fill="white"/>
<path fill-rule="evenodd" clip-rule="evenodd" d="M2.6667 0.444444C2.6667 0.32657 2.71353 0.213524 2.79688 0.130175C2.88023 0.0468253 2.99328 0 3.11115 0C3.22903 0 3.34207 0.0468253 3.42543 0.130175C3.50878 0.213524 3.5556 0.32657 3.5556 0.444444V2.66667C3.5556 2.78454 3.60243 2.89759 3.68578 2.98094C3.76913 3.06429 3.88218 3.11111 4.00005 3.11111C4.11793 3.11111 4.23097 3.06429 4.31433 2.98094C4.39768 2.89759 4.4445 2.78454 4.4445 2.66667V1.33333H8.889V0.444444C8.889 0.32657 8.93583 0.213524 9.01918 0.130175C9.10253 0.0468253 9.21558 0 9.33345 0C9.45133 0 9.56438 0.0468253 9.64773 0.130175C9.73108 0.213524 9.7779 0.32657 9.7779 0.444444V2.66667C9.7779 2.78454 9.82473 2.89759 9.90808 2.98094C9.99143 3.06429 10.1045 3.11111 10.2224 3.11111C10.3402 3.11111 10.4533 3.06429 10.5366 2.98094C10.62 2.89759 10.6668 2.78454 10.6668 2.66667V1.33333H12.0002C12.3538 1.33333 12.6929 1.47381 12.943 1.72386C13.193 1.97391 13.3335 2.31304 13.3335 2.66667V9.80889C14.112 9.9214 14.819 10.3246 15.3122 10.9373C15.8054 11.5499 16.0483 12.3267 15.992 13.1112C15.9357 13.8958 15.5843 14.6299 15.0086 15.1658C14.4329 15.7018 13.6756 15.9998 12.8891 16C12.3874 16.0004 11.8932 15.8793 11.4485 15.6471C11.0038 15.415 10.622 15.0785 10.3357 14.6667H1.33335C0.979724 14.6667 0.640581 14.5262 0.390529 14.2761C0.140478 14.0261 0 13.687 0 13.3333V2.66667C0 2.31304 0.140478 1.97391 0.390529 1.72386C0.640581 1.47381 0.979724 1.33333 1.33335 1.33333H2.6667V0.444444ZM9.7779 12.8889C9.77771 12.1406 10.0472 11.4174 10.537 10.8517C11.0268 10.286 11.704 9.91578 12.4446 9.80889V5.33333H0.8889V13.3333C0.8889 13.4512 0.935726 13.5643 1.01908 13.6476C1.10243 13.731 1.21548 13.7778 1.33335 13.7778H9.9068C9.82106 13.4893 9.77765 13.1899 9.7779 12.8889ZM15.1113 12.8889C15.1113 13.4783 14.8772 14.0435 14.4604 14.4602C14.0437 14.877 13.4784 15.1111 12.8891 15.1111C12.2997 15.1111 11.7344 14.877 11.3177 14.4602C10.9009 14.0435 10.6668 13.4783 10.6668 12.8889C10.6668 12.2995 10.9009 11.7343 11.3177 11.3175C11.7344 10.9008 12.2997 10.6667 12.8891 10.6667C13.4784 10.6667 14.0437 10.9008 14.4604 11.3175C14.8772 11.7343 15.1113 12.2995 15.1113 12.8889Z" fill="white"/>
</svg>
