<svg width="24" height="25" viewBox="0 0 24 25" fill="none" xmlns="http://www.w3.org/2000/svg">
<path d="M21 19.5C21.2549 19.5003 21.5 19.5979 21.6854 19.7728C21.8707 19.9478 21.9822 20.187 21.9972 20.4414C22.0121 20.6958 21.9293 20.9464 21.7657 21.1418C21.6021 21.3373 21.3701 21.4629 21.117 21.493L21 21.5H2.99999C2.74511 21.4997 2.49996 21.4021 2.31462 21.2272C2.12929 21.0522 2.01776 20.813 2.00282 20.5586C1.98788 20.3042 2.07067 20.0536 2.23426 19.8582C2.39785 19.6627 2.62989 19.5371 2.88299 19.507L2.99999 19.5H21ZM19 4.5C19.5046 4.49984 19.9906 4.69041 20.3605 5.0335C20.7305 5.37659 20.9571 5.84684 20.995 6.35L21 6.5V16.5C21.0002 17.0046 20.8096 17.4906 20.4665 17.8605C20.1234 18.2305 19.6531 18.4572 19.15 18.495L19 18.5H4.99999C4.49541 18.5002 4.00942 18.3096 3.63944 17.9665C3.26946 17.6234 3.04283 17.1532 3.00499 16.65L2.99999 16.5V6.5C2.99983 5.99542 3.1904 5.50943 3.53349 5.13945C3.87658 4.76947 4.34684 4.54284 4.84999 4.505L4.99999 4.5H19Z" fill="white"/>
</svg>
