<svg width="244" height="96" viewBox="0 0 244 96" fill="none" xmlns="http://www.w3.org/2000/svg">
<path d="M0 0H196C222.51 0 244 21.4903 244 48C244 74.5097 222.51 96 196 96H0V0Z" fill="white"/>
<path d="M35.3516 41H31.0938V29.7266H35.3672C37.2969 29.7266 38.6016 30.8516 38.6016 32.5391C38.6016 33.7109 37.7422 34.8047 36.6562 35V35.0625C38.1875 35.2578 39.1719 36.3359 39.1719 37.8359C39.1719 39.8203 37.75 41 35.3516 41ZM32.5 30.9688V34.5859H34.6094C36.2734 34.5859 37.1797 33.9219 37.1797 32.7031C37.1797 31.5859 36.4141 30.9688 35.0469 30.9688H32.5ZM32.5 39.7578H35.1406C36.8359 39.7578 37.7266 39.0703 37.7266 37.7656C37.7266 36.4609 36.8047 35.7969 35.0078 35.7969H32.5V39.7578ZM43.2344 39.9844C44.5156 39.9844 45.5 39.0859 45.5 37.9141V37.25L43.3281 37.3828C42.2344 37.4531 41.6094 37.9375 41.6094 38.7031C41.6094 39.4766 42.2578 39.9844 43.2344 39.9844ZM42.9297 41.1406C41.3125 41.1406 40.2266 40.1641 40.2266 38.7031C40.2266 37.3125 41.2969 36.4375 43.1719 36.3281L45.5 36.1953V35.5156C45.5 34.5234 44.8438 33.9297 43.7188 33.9297C42.6719 33.9297 42.0156 34.4219 41.8438 35.2188H40.5312C40.625 33.8125 41.8281 32.7344 43.75 32.7344C45.6562 32.7344 46.8594 33.7656 46.8594 35.3828V41H45.5703V39.6016H45.5391C45.0547 40.5312 44.0234 41.1406 42.9297 41.1406ZM48.4453 35.1172C48.4453 33.7266 49.6875 32.7344 51.4766 32.7344C53.1562 32.7344 54.3906 33.7344 54.4531 35.1094H53.1562C53.0625 34.3281 52.4297 33.8438 51.4297 33.8438C50.4375 33.8438 49.7812 34.3359 49.7812 35.0469C49.7812 35.6094 50.2109 35.9844 51.1328 36.2188L52.3906 36.5234C54.0312 36.9375 54.625 37.5312 54.625 38.7266C54.625 40.1406 53.2891 41.1406 51.3906 41.1406C49.6094 41.1406 48.3672 40.1719 48.2266 38.7344H49.5859C49.7344 39.5781 50.375 40.0312 51.4766 40.0312C52.5781 40.0312 53.2578 39.5625 53.2578 38.8281C53.2578 38.25 52.9219 37.9375 52.0078 37.6953L50.5781 37.3281C49.1484 36.9609 48.4453 36.2266 48.4453 35.1172ZM59.2969 33.9141C58.0234 33.9141 57.1328 34.8906 57.0469 36.2422H61.4609C61.4297 34.8828 60.5781 33.9141 59.2969 33.9141ZM61.4297 38.6719H62.7656C62.5312 40.0938 61.1562 41.1406 59.3828 41.1406C57.0547 41.1406 55.6406 39.5234 55.6406 36.9688C55.6406 34.4453 57.0781 32.7344 59.3203 32.7344C61.5156 32.7344 62.8672 34.3281 62.8672 36.7891V37.3047H57.0391V37.3828C57.0391 38.9375 57.9531 39.9609 59.4141 39.9609C60.4453 39.9609 61.2031 39.4375 61.4297 38.6719ZM67.3203 41.1406C65.25 41.1406 63.8438 39.4844 63.8438 36.9375C63.8438 34.3906 65.2422 32.7344 67.2891 32.7344C68.4531 32.7344 69.3906 33.3047 69.875 34.1953H69.9062V29.7266H71.2656V41H69.9688V39.625H69.9453C69.4219 40.5625 68.4922 41.1406 67.3203 41.1406ZM67.5781 33.9297C66.1406 33.9297 65.2344 35.1016 65.2344 36.9375C65.2344 38.7812 66.1406 39.9453 67.5781 39.9453C68.9766 39.9453 69.9141 38.7578 69.9141 36.9375C69.9141 35.125 68.9766 33.9297 67.5781 33.9297ZM78 41H76.5938V29.7266H78V41ZM79.9766 41V32.875H81.2578V34.1719H81.2891C81.7422 33.2969 82.6094 32.7344 83.8672 32.7344C85.6484 32.7344 86.6797 33.8828 86.6797 35.7266V41H85.3203V35.9688C85.3203 34.6562 84.7031 33.9375 83.4531 33.9375C82.1719 33.9375 81.3359 34.8438 81.3359 36.2188V41H79.9766ZM89.5625 41.0781C89.0625 41.0781 88.6719 40.6875 88.6719 40.1875C88.6719 39.6875 89.0625 39.2969 89.5625 39.2969C90.0625 39.2969 90.4531 39.6875 90.4531 40.1875C90.4531 40.6875 90.0625 41.0781 89.5625 41.0781ZM89.5625 35.3281C89.0625 35.3281 88.6719 34.9375 88.6719 34.4375C88.6719 33.9375 89.0625 33.5469 89.5625 33.5469C90.0625 33.5469 90.4531 33.9375 90.4531 34.4375C90.4531 34.9375 90.0625 35.3281 89.5625 35.3281Z" fill="#182E2F"/>
<path d="M38.2266 65.0469V67H30.9375V55.7266H33.2969V65.0469H38.2266ZM42.6641 65.4844C43.6562 65.4844 44.4766 64.8359 44.4766 63.9297V63.3203L42.7109 63.4297C41.8594 63.4922 41.375 63.875 41.375 64.4688C41.375 65.0938 41.8906 65.4844 42.6641 65.4844ZM41.9141 67.1328C40.3203 67.1328 39.1094 66.1016 39.1094 64.5938C39.1094 63.0703 40.2812 62.1875 42.3672 62.0625L44.4766 61.9375V61.3828C44.4766 60.6016 43.9297 60.1484 43.0703 60.1484C42.2188 60.1484 41.6797 60.5703 41.5703 61.1875H39.4844C39.5703 59.5625 40.9531 58.4453 43.1719 58.4453C45.3203 58.4453 46.7188 59.5547 46.7188 61.2422V67H44.5156V65.7188H44.4688C44 66.6094 42.9609 67.1328 41.9141 67.1328ZM52.0625 65.2188C53.2031 65.2188 53.9297 64.3125 53.9297 62.7969C53.9297 61.2891 53.2031 60.3203 52.0625 60.3203C50.9375 60.3203 50.2266 61.2734 50.2266 62.7969C50.2266 64.3281 50.9297 65.2188 52.0625 65.2188ZM52.0234 70.1562C49.8203 70.1562 48.3281 69.0859 48.1484 67.5938H50.3828C50.5625 68.1719 51.2188 68.5703 52.0859 68.5703C53.2656 68.5703 53.9219 67.9141 53.9219 66.9453V65.4766H53.875C53.4844 66.3672 52.5 66.9766 51.2891 66.9766C49.2422 66.9766 47.8906 65.3984 47.8906 62.7812C47.8906 60.125 49.2031 58.4922 51.3281 58.4922C52.5312 58.4922 53.4766 59.125 53.9141 60.0859H53.9531V58.625H56.2031V66.8828C56.2031 68.8828 54.5312 70.1562 52.0234 70.1562ZM61.5391 67.1797C59.0078 67.1797 57.3906 65.5547 57.3906 62.8047C57.3906 60.0938 59.0312 58.4453 61.5391 58.4453C64.0469 58.4453 65.6875 60.0859 65.6875 62.8047C65.6875 65.5625 64.0703 67.1797 61.5391 67.1797ZM61.5391 65.4375C62.6562 65.4375 63.3672 64.4922 63.3672 62.8125C63.3672 61.1484 62.6484 60.1875 61.5391 60.1875C60.4297 60.1875 59.7031 61.1484 59.7031 62.8125C59.7031 64.4922 60.4141 65.4375 61.5391 65.4375ZM66.7266 61.0859C66.7266 59.4922 68.1094 58.4453 70.2578 58.4453C72.3594 58.4453 73.7266 59.5078 73.7578 61.1328H71.6562C71.6094 60.4609 71.0703 60.0469 70.2266 60.0469C69.4375 60.0469 68.9219 60.4062 68.9219 60.9453C68.9219 61.3594 69.2812 61.6406 70.0156 61.8125L71.6172 62.1562C73.2969 62.5312 73.9766 63.1953 73.9766 64.4453C73.9766 66.0938 72.4609 67.1797 70.25 67.1797C68.0156 67.1797 66.6406 66.1016 66.5156 64.4688H68.7422C68.8516 65.1719 69.4062 65.5781 70.3125 65.5781C71.1797 65.5781 71.7031 65.2344 71.7031 64.6875C71.7031 64.2656 71.4219 64.0312 70.6719 63.8516L69.125 63.5078C67.5391 63.1484 66.7266 62.3203 66.7266 61.0859ZM76.7969 69.4688H75.0859L75.6719 65.0625H77.8438L76.7969 69.4688ZM84.2578 67H82V55.7266H83.9688L89.2344 63.0703H89.2969V55.7266H91.5547V67H89.6016L84.3281 59.6172H84.2578V67ZM93.2812 67V58.625H95.5625V67H93.2812ZM94.4219 57.7031C93.7344 57.7031 93.2031 57.1797 93.2031 56.5234C93.2031 55.8594 93.7344 55.3438 94.4219 55.3438C95.1094 55.3438 95.6406 55.8594 95.6406 56.5234C95.6406 57.1797 95.1094 57.7031 94.4219 57.7031ZM100.953 65.2188C102.094 65.2188 102.82 64.3125 102.82 62.7969C102.82 61.2891 102.094 60.3203 100.953 60.3203C99.8281 60.3203 99.1172 61.2734 99.1172 62.7969C99.1172 64.3281 99.8203 65.2188 100.953 65.2188ZM100.914 70.1562C98.7109 70.1562 97.2188 69.0859 97.0391 67.5938H99.2734C99.4531 68.1719 100.109 68.5703 100.977 68.5703C102.156 68.5703 102.812 67.9141 102.812 66.9453V65.4766H102.766C102.375 66.3672 101.391 66.9766 100.18 66.9766C98.1328 66.9766 96.7812 65.3984 96.7812 62.7812C96.7812 60.125 98.0938 58.4922 100.219 58.4922C101.422 58.4922 102.367 59.125 102.805 60.0859H102.844V58.625H105.094V66.8828C105.094 68.8828 103.422 70.1562 100.914 70.1562ZM110.344 60.1328C109.344 60.1328 108.625 60.8906 108.547 61.9375H112.102C112.055 60.8672 111.359 60.1328 110.344 60.1328ZM112.133 64.4375H114.227C113.977 66.0781 112.477 67.1797 110.406 67.1797C107.828 67.1797 106.281 65.5312 106.281 62.8516C106.281 60.1797 107.844 58.4453 110.32 58.4453C112.758 58.4453 114.297 60.0938 114.297 62.6406V63.3359H108.523V63.4766C108.523 64.6719 109.281 65.4922 110.445 65.4922C111.281 65.4922 111.922 65.0781 112.133 64.4375ZM115.477 67V58.625H117.68V60.1328H117.727C118.023 59.0703 118.734 58.4922 119.719 58.4922C119.984 58.4922 120.211 58.5312 120.367 58.5781V60.5859C120.18 60.5078 119.867 60.4531 119.539 60.4531C118.414 60.4531 117.758 61.1406 117.758 62.3203V67H115.477ZM121.344 67V58.625H123.625V67H121.344ZM122.484 57.7031C121.797 57.7031 121.266 57.1797 121.266 56.5234C121.266 55.8594 121.797 55.3438 122.484 55.3438C123.172 55.3438 123.703 55.8594 123.703 56.5234C123.703 57.1797 123.172 57.7031 122.484 57.7031ZM128.383 65.4844C129.375 65.4844 130.195 64.8359 130.195 63.9297V63.3203L128.43 63.4297C127.578 63.4922 127.094 63.875 127.094 64.4688C127.094 65.0938 127.609 65.4844 128.383 65.4844ZM127.633 67.1328C126.039 67.1328 124.828 66.1016 124.828 64.5938C124.828 63.0703 126 62.1875 128.086 62.0625L130.195 61.9375V61.3828C130.195 60.6016 129.648 60.1484 128.789 60.1484C127.938 60.1484 127.398 60.5703 127.289 61.1875H125.203C125.289 59.5625 126.672 58.4453 128.891 58.4453C131.039 58.4453 132.438 59.5547 132.438 61.2422V67H130.234V65.7188H130.188C129.719 66.6094 128.68 67.1328 127.633 67.1328ZM135.398 67.0938C134.695 67.0938 134.141 66.5312 134.141 65.8359C134.141 65.1328 134.695 64.5781 135.398 64.5781C136.094 64.5781 136.656 65.1328 136.656 65.8359C136.656 66.5312 136.094 67.0938 135.398 67.0938Z" fill="#182E2F"/>
<rect x="162" y="14" width="68" height="68" rx="34" fill="#182E2F"/>
<g clip-path="url(#clip0_3_242)">
<path d="M196 28.495C184.95 28.495 176 37.45 176 48.495C176 57.3333 181.73 64.8283 189.675 67.47C190.675 67.6583 191.042 67.04 191.042 66.5083C191.042 66.0333 191.025 64.775 191.017 63.1083C185.453 64.315 184.28 60.425 184.28 60.425C183.37 58.1167 182.055 57.5 182.055 57.5C180.243 56.26 182.195 56.285 182.195 56.285C184.203 56.425 185.258 58.345 185.258 58.345C187.042 61.4033 189.94 60.52 191.083 60.0083C191.263 58.715 191.778 57.8333 192.35 57.3333C187.908 56.8333 183.24 55.1133 183.24 47.45C183.24 45.2667 184.015 43.4833 185.298 42.0833C185.073 41.5783 184.398 39.545 185.473 36.79C185.473 36.79 187.148 36.2533 190.973 38.84C192.573 38.395 194.273 38.175 195.973 38.165C197.673 38.175 199.373 38.395 200.973 38.84C204.773 36.2533 206.448 36.79 206.448 36.79C207.523 39.545 206.848 41.5783 206.648 42.0833C207.923 43.4833 208.698 45.2667 208.698 47.45C208.698 55.1333 204.023 56.825 199.573 57.3167C200.273 57.9167 200.923 59.1433 200.923 61.0167C200.923 63.6933 200.898 65.8433 200.898 66.4933C200.898 67.0183 201.248 67.6433 202.273 67.4433C210.275 64.82 216 57.32 216 48.495C216 37.45 207.045 28.495 196 28.495Z" fill="white"/>
</g>
<defs>
<clipPath id="clip0_3_242">
<rect width="40" height="40" fill="white" transform="translate(176 28)"/>
</clipPath>
</defs>
</svg>
